<?xml version="1.0" encoding="UTF-8" standalone="no"?>
<!-- Created with Inkscape (http://www.inkscape.org/) -->

<svg
   xmlns:dc="http://purl.org/dc/elements/1.1/"
   xmlns:cc="http://creativecommons.org/ns#"
   xmlns:rdf="http://www.w3.org/1999/02/22-rdf-syntax-ns#"
   xmlns:svg="http://www.w3.org/2000/svg"
   xmlns="http://www.w3.org/2000/svg"
   xmlns:sodipodi="http://sodipodi.sourceforge.net/DTD/sodipodi-0.dtd"
   xmlns:inkscape="http://www.inkscape.org/namespaces/inkscape"
   width="512"
   height="512"
   viewBox="0 0 135.46666 135.46667"
   version="1.1"
   id="svg8"
   inkscape:version="0.92.3 (2405546, 2018-03-11)"
   sodipodi:docname="right-angle.svg">
  <defs
     id="defs2">
    <symbol
       id="DreamSpeaking">
      <title
         id="title5785">Dream Speaking</title>
      <path
         d="m 170,60 c -18,-14 -51,-11 -62,7 -32,-19 -57,36 -22,56 -30,10 -30,50 3,57 -2,30 53,29 59,8 10,23 47,29 60,9 14,10 36,5 43,-9 11,25 41,21 50,1 35,4 40,-31 29,-50 24,-9 22,-39 3,-48 16,-26 -17,-58 -39,-29 -13,-14.3 -47,-14 -56,1 -16,-19 -53,-21 -68,-3 z"
         style="stroke:none"
         id="path5787" />
      <path
         d="m 160,180 c -33,35 58,-6 -53,96 57.1,-21 93,-56 111,-102"
         style="stroke:none"
         id="path5789" />
      <path
         d="m 165,55 c -18,-14 -51,-11 -62,7 -32,-19 -57,36 -22,56 -30,10 -30,50 3,57 -2,30 53,29 59,8 10,23 47,29 60,9 14,10 36,5 43,-9 11,25 41,21 50,1 35,4 40,-31 29,-50 24,-9 22,-39 3,-48 16,-26 -17,-58 -39,-29 -13,-14.3 -47,-14 -56,1 -16,-19 -53,-21 -68,-3 z"
         style="fill:#eeeeee;stroke-width:3.5"
         id="path5791" />
      <path
         d="m 155,176 c -33,35 58,-6 -53,96 57.1,-21 93,-56 111,-102"
         style="fill:#eeeeee;stroke-width:3.5"
         id="path5793" />
      <path
         d="m 163,58 c -17,-12 -48,-11 -58,6 -37,-14 -46,42 -17,53 -33,14 -20,48 2,50 -5,29 47,29 53,7 10,25 43,24 58,8 13,9 34,4 40,-8 10,22 41,19 48,1 31,7 37,-28 27,-43 23,-7 21,-38 3,-46 14,-26 -15,-52 -30,-22 -19,-15.6 -43,-23 -59,-1 -15,-20 -51,-23 -67,-5 z"
         style="fill:white;stroke:none"
         id="path5795" />
      <path
         d="m 150,168 c -31,33 67,1 -38,97 56,-37 78,-67 93,-102"
         style="fill:white;stroke:none"
         id="path5797" />
    </symbol>
    <symbol
       id="Cashier_Inv">
      <title
         id="title6067">Cashier</title>
      <rect
         x="0.5"
         y="0.5"
         width="71"
         height="71"
         ry="6"
         style="stroke:white"
         id="rect6069" />
      <g
         style="fill:none;stroke:white;stroke-width:6"
         id="g6075">
        <circle
           cx="36"
           cy="36"
           r="24"
           id="circle6071" />
        <path
           d="m 45,30 c 0,-4 -4,-6 -9,-6 -5,0 -9,2 -9,6 0,4 4,5.5 9,6 5,0.5 10,1 10,6 0,5 -5,6 -10,6 -5,0 -9,-3 -9,-7 m 9,-24 0,38"
           id="path6073" />
      </g>
    </symbol>
  </defs>
  <sodipodi:namedview
     id="base"
     pagecolor="#ffffff"
     bordercolor="#666666"
     borderopacity="1.0"
     inkscape:pageopacity="0.0"
     inkscape:pageshadow="2"
     inkscape:zoom="0.49497475"
     inkscape:cx="253.38494"
     inkscape:cy="188.47006"
     inkscape:document-units="px"
     inkscape:current-layer="layer1"
     showgrid="false"
     units="px"
     inkscape:window-width="1920"
     inkscape:window-height="1015"
     inkscape:window-x="0"
     inkscape:window-y="0"
     inkscape:window-maximized="1">
    <inkscape:grid
       type="xygrid"
       id="grid3732" />
  </sodipodi:namedview>
  <metadata
     id="metadata5">
    <rdf:RDF>
      <cc:Work
         rdf:about="">
        <dc:format>image/svg+xml</dc:format>
        <dc:type
           rdf:resource="http://purl.org/dc/dcmitype/StillImage" />
        <dc:title></dc:title>
      </cc:Work>
    </rdf:RDF>
  </metadata>
  <g
     inkscape:label="Layer 1"
     inkscape:groupmode="layer"
     id="layer1"
     transform="translate(0,-161.53332)">
    <g
       id="g11323">
      <path
         sodipodi:nodetypes="cccc"
         inkscape:connector-curvature="0"
         id="rect10511"
         d="M 3.9687499,167.45443 129.62556,293.03124 H 3.9687499 Z"
         style="fill:#ffffff;stroke:#000000;stroke-width:2.64583325;stroke-miterlimit:4;stroke-dasharray:none" />
      <rect
         y="266.57291"
         x="3.96875"
         height="26.458332"
         width="26.458332"
         id="rect11319"
         style="fill:none;stroke:#000000;stroke-width:1.32291665;stroke-miterlimit:4;stroke-dasharray:none" />
    </g>
  </g>
</svg>
